<svg width="146" height="32" viewBox="0 0 146 32" fill="none" xmlns="http://www.w3.org/2000/svg">
<g clip-path="url(#clip0_1589_8018)">
<path d="M16 5.88774V25.9694L15.0548 26.541V7.44212L6.91589 2.65586V31.4306L6.22258 31.8527L5.97712 32L5.72951 31.8527L5.0362 31.4306H5.03189V2.65586L0.964608 5.04569V28.988L0 28.4054V3.5111L5.0362 0.549639L5.72951 0.149502L5.97712 0L6.22258 0.149502L6.91589 0.549639L16 5.88774Z" fill="url(#paint0_linear_1589_8018)"/>
</g>
<path d="M29.472 22.064C29.712 22.016 30.112 22 30.672 22C30.864 22 31.296 21.984 31.536 22.032C31.536 20.88 31.856 16.88 32.032 14.224C33.104 16.512 34.704 19.328 35.984 22.016C36.096 22.208 36.128 22.24 36.24 22C37.344 19.664 39.024 16.72 40.352 14.208C40.48 16.816 40.864 20.848 40.864 22.064C41.136 22.016 41.68 22 42.24 22C42.768 22 43.056 22.016 43.232 22.032C42.976 21.024 42.432 16.432 42.048 12.704C41.936 11.856 41.888 10.992 41.776 10.208C41.728 9.776 41.696 9.728 41.616 9.728C41.536 9.728 41.456 9.808 41.216 10.192C40.752 11.024 40.336 11.824 39.296 13.504L36.4 18.72L32.928 12.56C32.416 11.76 31.76 10.496 31.424 10C31.312 9.824 31.248 9.728 31.2 9.728C31.136 9.728 31.12 9.776 31.072 9.984C30.96 10.736 30.88 11.552 30.768 12.448C30.32 16.192 29.728 21.04 29.472 22.064ZM46.6455 17.408C46.6455 19.76 46.5335 21.456 46.4855 22.048C46.7255 22 47.2055 22 47.8455 22C48.6935 22 49.9575 22.112 52.1175 22.112C52.7415 22.112 52.9495 22.096 53.0135 22.048C53.0775 21.616 53.2215 20.88 53.3975 20.368C52.8375 20.624 52.0535 20.736 50.6615 20.736C49.9735 20.736 49.5575 20.72 49.1255 20.672C48.9815 20.656 48.8055 20.608 48.7575 20.56C48.6615 20.512 48.6455 20.048 48.6455 17.232V16.352C48.6455 16.304 48.6615 16.288 48.7095 16.288C49.0775 16.288 50.7255 16.304 51.2535 16.352C51.9415 16.4 52.2135 16.496 52.4855 16.64C52.4855 16.208 52.5495 15.36 52.6295 14.832C52.4375 14.896 52.1175 14.96 51.1735 14.976C50.6615 14.976 49.0135 14.992 48.7095 14.992C48.6615 14.992 48.6455 14.96 48.6455 14.912V11.36C48.6455 11.328 48.6615 11.312 48.7095 11.312C49.7495 11.312 50.7415 11.328 51.2695 11.376C52.1655 11.456 52.5175 11.552 52.7575 11.696C52.7575 10.928 52.8535 10.224 52.9175 9.904C52.5975 10 51.9095 10 51.4455 10H47.7015C47.2535 10 46.7095 10.016 46.4375 9.968C46.5655 10.464 46.6455 11.952 46.6455 14.592V17.408ZM54.4851 11.648C54.9811 11.472 55.5251 11.408 56.6771 11.344C57.6851 11.296 58.1171 11.312 58.8051 11.312V17.408C58.8051 19.472 58.7411 21.424 58.6611 22.064C59.0291 22.016 59.4771 22 60.0691 22C60.4371 22 60.7731 22.016 60.9811 22.032C60.9011 21.344 60.8211 19.312 60.8211 17.408V11.312C62.0531 11.312 62.7091 11.328 63.2851 11.376C64.2451 11.44 64.7571 11.552 65.0611 11.76C65.0771 11.136 65.1411 10.416 65.2691 9.856C64.9171 9.952 63.7651 10 62.7091 10H57.3811C55.9251 10 55.2371 9.952 54.8051 9.84C54.7571 10.304 54.6131 11.28 54.4851 11.648ZM67.3955 17.408C67.3955 19.456 67.2835 21.376 67.2035 22.064C67.4435 22.016 68.1315 22 68.5635 22C68.9475 22 69.3315 22.016 69.5395 22.032C69.4115 21.28 69.3475 19.616 69.3475 17.696V17.264C69.3475 17.2 69.3635 17.168 69.4115 17.168C69.9715 17.168 70.8675 17.184 71.2195 17.184C71.2995 17.184 71.3635 17.216 71.4115 17.296C72.0515 18.144 73.4275 20.384 74.3235 21.28C74.8995 21.856 75.3635 22.112 76.3235 22.112C76.8355 22.112 77.4755 22.096 77.7475 21.984C77.4435 21.84 76.9315 21.36 76.2115 20.576C75.1395 19.408 74.0515 17.84 73.0915 16.496C74.3715 15.664 75.0595 14.528 75.0595 13.184C75.0595 11.92 74.3715 11.008 73.5395 10.512C72.8515 10.112 71.8435 9.936 70.5475 9.936C69.8915 9.936 68.4355 10 68.1475 10C67.8115 10 67.5235 9.984 67.1555 9.968C67.3475 10.592 67.3955 12.288 67.3955 14.592V17.408ZM69.3475 11.312C69.3475 11.248 69.3635 11.216 69.4115 11.2C69.5875 11.152 69.9875 11.136 70.4195 11.136C71.8915 11.136 73.0755 11.984 73.0755 13.68C73.0755 14.752 72.5635 15.424 72.0355 15.824C71.8755 15.936 71.5875 16 71.1555 16C70.3875 16 69.7155 15.936 69.4115 15.856C69.3635 15.808 69.3475 15.808 69.3475 15.68V11.312ZM84.232 22.272C88.28 22.272 90.68 19.36 90.68 15.696C90.68 12.432 88.296 9.728 84.44 9.728C80.12 9.728 77.976 12.896 77.976 16.096C77.976 18.944 79.864 22.272 84.232 22.272ZM84.648 21.008C81.88 21.008 80.248 18.64 80.248 15.616C80.248 12.688 81.784 10.976 84.04 10.976C86.76 10.976 88.408 13.344 88.408 16.192C88.408 19.968 86.2 21.008 84.648 21.008ZM104.115 22.272C105.491 22.272 106.867 22 107.491 21.744C107.539 21.28 107.715 20.384 107.843 19.92C106.963 20.544 105.683 20.784 104.355 20.784C100.643 20.784 99.1074 18.16 99.1074 15.616C99.1074 14.272 99.4274 13.024 100.451 12.112C101.075 11.552 102.003 11.04 103.587 11.04C105.507 11.04 106.915 11.664 107.619 12.384C107.635 11.664 107.779 10.752 107.891 10.352C107.251 10.224 105.907 9.728 103.763 9.728C101.395 9.728 99.8274 10.368 98.6594 11.44C97.1554 12.864 96.8354 14.624 96.8354 15.824C96.8354 17.296 97.2834 19.168 98.8194 20.544C100.291 21.824 102.083 22.272 104.115 22.272ZM115.748 22.272C119.796 22.272 122.196 19.36 122.196 15.696C122.196 12.432 119.812 9.728 115.956 9.728C111.636 9.728 109.492 12.896 109.492 16.096C109.492 18.944 111.38 22.272 115.748 22.272ZM116.164 21.008C113.396 21.008 111.764 18.64 111.764 15.616C111.764 12.688 113.3 10.976 115.556 10.976C118.276 10.976 119.924 13.344 119.924 16.192C119.924 19.968 117.716 21.008 116.164 21.008ZM125.271 17.408C125.271 19.456 125.159 21.376 125.079 22.064C125.319 22.016 126.007 22 126.439 22C126.823 22 127.207 22.016 127.415 22.032C127.286 21.28 127.223 19.616 127.223 17.696V17.264C127.223 17.2 127.239 17.168 127.286 17.168C127.847 17.168 128.743 17.184 129.095 17.184C129.175 17.184 129.239 17.216 129.287 17.296C129.927 18.144 131.303 20.384 132.199 21.28C132.775 21.856 133.239 22.112 134.199 22.112C134.711 22.112 135.351 22.096 135.623 21.984C135.319 21.84 134.807 21.36 134.087 20.576C133.015 19.408 131.927 17.84 130.967 16.496C132.247 15.664 132.935 14.528 132.935 13.184C132.935 11.92 132.247 11.008 131.415 10.512C130.727 10.112 129.719 9.936 128.423 9.936C127.766 9.936 126.311 10 126.023 10C125.687 10 125.399 9.984 125.031 9.968C125.223 10.592 125.271 12.288 125.271 14.592V17.408ZM127.223 11.312C127.223 11.248 127.239 11.216 127.286 11.2C127.463 11.152 127.863 11.136 128.295 11.136C129.767 11.136 130.951 11.984 130.951 13.68C130.951 14.752 130.439 15.424 129.911 15.824C129.751 15.936 129.463 16 129.031 16C128.263 16 127.591 15.936 127.286 15.856C127.239 15.808 127.223 15.808 127.223 15.68V11.312ZM137.02 17.408C137.02 19.456 136.94 21.392 136.86 22.064C137.068 22.016 137.708 22 138.108 22C138.492 22 138.94 22.016 139.18 22.032C139.1 21.296 139.036 19.344 139.036 17.472V11.472C139.036 11.168 139.036 11.168 139.116 11.12C139.228 11.072 139.644 11.056 139.948 11.056C140.7 11.056 141.388 11.264 141.82 11.632C142.396 12.016 142.764 12.656 142.764 13.6C142.764 15.344 141.468 15.904 140.124 15.984C140.204 16.192 140.348 16.816 140.428 17.072C142.78 17.12 144.748 15.712 144.748 13.344C144.748 12.24 144.236 11.424 143.788 11.024C143.02 10.352 142.108 9.936 140.092 9.936C139.068 9.936 138.284 10 137.692 10C137.324 10 137.084 10.016 136.844 9.968C136.956 10.592 137.02 12.288 137.02 14.592V17.408Z" fill="black"/>
<defs>
<linearGradient id="paint0_linear_1589_8018" x1="2.01928" y1="1.93801" x2="12.7893" y2="28.2069" gradientUnits="userSpaceOnUse">
<stop stop-color="#EC3338"/>
<stop offset="1" stop-color="#B1262A"/>
</linearGradient>
<clipPath id="clip0_1589_8018">
<rect width="16" height="32" fill="white"/>
</clipPath>
</defs>
</svg>
